<svg xmlns="http://www.w3.org/2000/svg" viewBox="0 0 512 512">
  <defs>
    <linearGradient id="gradient" x1="0%" y1="0%" x2="100%" y2="100%">
      <stop offset="0%" style="stop-color:#22c55e"/>
      <stop offset="100%" style="stop-color:#16a34a"/>
    </linearGradient>
  </defs>
  <rect width="512" height="512" rx="96" fill="url(#gradient)"/>
  <g fill="white" transform="translate(128, 100)">
    <!-- Leaf icon -->
    <path d="M128 32C200 32 256 88 256 160C256 232 200 288 128 288C56 288 0 232 0 160L0 96C64 96 128 32 128 32Z" opacity="0.9"/>
    <path d="M128 96C128 96 96 160 128 224" stroke="white" stroke-width="12" fill="none" stroke-linecap="round"/>
    <path d="M128 144C128 144 160 168 176 192" stroke="white" stroke-width="8" fill="none" stroke-linecap="round"/>
    <path d="M128 144C128 144 96 168 80 192" stroke="white" stroke-width="8" fill="none" stroke-linecap="round"/>
  </g>
  <text x="256" y="420" font-family="system-ui, -apple-system, sans-serif" font-size="72" font-weight="bold" fill="white" text-anchor="middle">Grønnest</text>
</svg>
